<svg width="85" height="20" viewBox="0 0 85 20" fill="none" xmlns="http://www.w3.org/2000/svg">
<g clip-path="url(#clip0)">
<path fill-rule="evenodd" clip-rule="evenodd" d="M22.037 0C16.1448 0 11.9024 4.12458 11.9024 9.89899C11.9024 15.6734 16.0269 19.9158 21.8013 19.9158C25.8081 19.9158 28.7542 18.3838 30.6397 15.3199L26.2795 13.3165C25.6902 14.4949 23.9226 15.4377 21.9192 15.4377C19.2088 15.4377 17.5589 14.1414 17.0875 11.5488H31.4646C31.4646 11.5488 31.5825 10.8418 31.5825 10.0168C31.5825 4.12458 27.6936 0 22.037 0ZM17.2054 7.77778C17.7946 5.42088 19.4444 4.24242 22.037 4.24242C24.6296 4.24242 26.3973 5.65657 26.5152 7.77778H17.2054ZM43.1313 13.67L38.1818 0.707071H32.2896L40.1852 19.2088H45.9596L53.8552 0.707071H48.1987L43.1313 13.67ZM56.6835 0.707071H61.7508V19.2088H56.6835V0.707071ZM77.7778 9.89899L84.4949 0.707071H78.4848L74.7138 6.12795L70.9428 0.707071H64.8148L71.532 9.89899L64.4613 19.2088H70.4714L74.596 13.5522L78.7205 19.2088H84.8485L77.7778 9.89899ZM5.06734 19.2088H0V0.589226H12.138L10.2525 5.06734H5.06734V19.2088Z" fill="#212EEE"/>
</g>
<defs>
<clipPath id="clip0">
<path d="M0 0H84.8485V20H0V0Z" fill="white"/>
</clipPath>
</defs>
</svg>
